<?xml version="1.0" encoding="UTF-8" ?>
<svg version="1.1" width="512" height="512" viewBox="0 0 128 128" xmlns="http://www.w3.org/2000/svg" shape-rendering="crispEdges">
<rect x="45" y="0" width="38" height="4" fill="#1C1C1C" />
<rect x="38" y="4" width="11" height="4" fill="#1C1C1C" />
<rect x="49" y="4" width="30" height="4" fill="#F4F4F4" />
<rect x="79" y="4" width="11" height="4" fill="#1C1C1C" />
<rect x="34" y="8" width="7" height="3" fill="#1C1C1C" />
<rect x="41" y="8" width="8" height="3" fill="#F4F4F4" />
<rect x="49" y="8" width="30" height="3" fill="#1C1C1C" />
<rect x="79" y="8" width="8" height="3" fill="#F4F4F4" />
<rect x="87" y="8" width="7" height="3" fill="#1C1C1C" />
<rect x="26" y="11" width="12" height="4" fill="#1C1C1C" />
<rect x="38" y="11" width="3" height="4" fill="#F4F4F4" />
<rect x="41" y="11" width="15" height="4" fill="#1C1C1C" />
<rect x="56" y="11" width="4" height="4" fill="#F4F4F4" />
<rect x="60" y="11" width="27" height="8" fill="#1C1C1C" />
<rect x="87" y="11" width="3" height="4" fill="#F4F4F4" />
<rect x="90" y="11" width="12" height="4" fill="#1C1C1C" />
<rect x="23" y="15" width="7" height="4" fill="#1C1C1C" />
<rect x="30" y="15" width="8" height="4" fill="#F4F4F4" />
<rect x="38" y="15" width="15" height="4" fill="#1C1C1C" />
<rect x="53" y="15" width="3" height="4" fill="#F4F4F4" />
<rect x="56" y="15" width="4" height="19" fill="#1C1C1C" />
<rect x="87" y="15" width="3" height="8" fill="#1C1C1C" />
<rect x="90" y="15" width="8" height="4" fill="#F4F4F4" />
<rect x="98" y="15" width="7" height="4" fill="#1C1C1C" />
<rect x="19" y="19" width="7" height="4" fill="#1C1C1C" />
<rect x="26" y="19" width="4" height="4" fill="#F4F4F4" />
<rect x="30" y="19" width="15" height="4" fill="#1C1C1C" />
<rect x="45" y="19" width="4" height="4" fill="#F4F4F4" />
<rect x="49" y="19" width="7" height="19" fill="#1C1C1C" />
<rect x="60" y="19" width="4" height="15" fill="#1C1C1C" />
<rect x="64" y="19" width="11" height="4" fill="#F4F4F4" />
<rect x="75" y="19" width="8" height="4" fill="#1C1C1C" />
<rect x="83" y="19" width="4" height="4" fill="#F4F4F4" />
<rect x="90" y="19" width="8" height="22" fill="#1C1C1C" />
<rect x="98" y="19" width="4" height="4" fill="#F4F4F4" />
<rect x="102" y="19" width="7" height="4" fill="#1C1C1C" />
<rect x="15" y="23" width="8" height="3" fill="#1C1C1C" />
<rect x="23" y="23" width="3" height="3" fill="#F4F4F4" />
<rect x="26" y="23" width="15" height="3" fill="#1C1C1C" />
<rect x="41" y="23" width="4" height="3" fill="#F4F4F4" />
<rect x="45" y="23" width="4" height="18" fill="#1C1C1C" />
<rect x="64" y="23" width="11" height="11" fill="#1C1C1C" />
<rect x="75" y="23" width="4" height="3" fill="#F4F4F4" />
<rect x="79" y="23" width="8" height="7" fill="#1C1C1C" />
<rect x="87" y="23" width="3" height="3" fill="#F4F4F4" />
<rect x="98" y="23" width="4" height="11" fill="#1C1C1C" />
<rect x="102" y="23" width="3" height="3" fill="#F4F4F4" />
<rect x="105" y="23" width="8" height="3" fill="#1C1C1C" />
<rect x="11" y="26" width="8" height="4" fill="#1C1C1C" />
<rect x="19" y="26" width="4" height="4" fill="#F4F4F4" />
<rect x="23" y="26" width="15" height="4" fill="#1C1C1C" />
<rect x="38" y="26" width="3" height="4" fill="#F4F4F4" />
<rect x="41" y="26" width="4" height="27" fill="#1C1C1C" />
<rect x="75" y="26" width="4" height="15" fill="#1C1C1C" />
<rect x="87" y="26" width="3" height="12" fill="#1C1C1C" />
<rect x="102" y="26" width="3" height="12" fill="#1C1C1C" />
<rect x="105" y="26" width="4" height="4" fill="#F4F4F4" />
<rect x="109" y="26" width="8" height="4" fill="#1C1C1C" />
<rect x="8" y="30" width="7" height="4" fill="#1C1C1C" />
<rect x="15" y="30" width="4" height="4" fill="#F4F4F4" />
<rect x="19" y="30" width="15" height="8" fill="#1C1C1C" />
<rect x="34" y="30" width="4" height="4" fill="#F4F4F4" />
<rect x="38" y="30" width="3" height="11" fill="#1C1C1C" />
<rect x="79" y="30" width="4" height="4" fill="#F4F4F4" />
<rect x="83" y="30" width="4" height="4" fill="#1C1C1C" />
<rect x="105" y="30" width="4" height="15" fill="#1C1C1C" />
<rect x="109" y="30" width="4" height="4" fill="#F4F4F4" />
<rect x="113" y="30" width="7" height="4" fill="#1C1C1C" />
<rect x="8" y="34" width="3" height="11" fill="#1C1C1C" />
<rect x="11" y="34" width="4" height="11" fill="#F4F4F4" />
<rect x="15" y="34" width="4" height="15" fill="#1C1C1C" />
<rect x="34" y="34" width="4" height="11" fill="#1C1C1C" />
<rect x="56" y="34" width="12" height="19" fill="#F4F4F4" />
<rect x="68" y="34" width="7" height="4" fill="#1C1C1C" />
<rect x="79" y="34" width="4" height="19" fill="#1C1C1C" />
<rect x="83" y="34" width="4" height="4" fill="#F4F4F4" />
<rect x="98" y="34" width="4" height="4" fill="#F4F4F4" />
<rect x="109" y="34" width="4" height="22" fill="#1C1C1C" />
<rect x="113" y="34" width="4" height="11" fill="#F4F4F4" />
<rect x="117" y="34" width="3" height="11" fill="#1C1C1C" />
<rect x="19" y="38" width="4" height="3" fill="#1C1C1C" />
<rect x="23" y="38" width="7" height="3" fill="#F4F4F4" />
<rect x="30" y="38" width="4" height="11" fill="#1C1C1C" />
<rect x="49" y="38" width="7" height="25" fill="#F4F4F4" />
<rect x="68" y="38" width="7" height="15" fill="#F4F4F4" />
<rect x="83" y="38" width="4" height="15" fill="#1C1C1C" />
<rect x="87" y="38" width="3" height="3" fill="#F4F4F4" />
<rect x="98" y="38" width="4" height="30" fill="#1C1C1C" />
<rect x="102" y="38" width="3" height="7" fill="#F4F4F4" />
<rect x="4" y="41" width="4" height="8" fill="#1C1C1C" />
<rect x="19" y="41" width="4" height="8" fill="#F4F4F4" />
<rect x="23" y="41" width="7" height="12" fill="#1C1C1C" />
<rect x="38" y="41" width="3" height="4" fill="#F4F4F4" />
<rect x="45" y="41" width="4" height="22" fill="#F4F4F4" />
<rect x="75" y="41" width="4" height="22" fill="#F4F4F4" />
<rect x="87" y="41" width="3" height="15" fill="#1C1C1C" />
<rect x="90" y="41" width="4" height="4" fill="#F4F4F4" />
<rect x="94" y="41" width="4" height="4" fill="#1C1C1C" />
<rect x="120" y="41" width="4" height="8" fill="#1C1C1C" />
<rect x="0" y="45" width="4" height="23" fill="#1C1C1C" />
<rect x="8" y="45" width="3" height="4" fill="#F4F4F4" />
<rect x="11" y="45" width="4" height="27" fill="#1C1C1C" />
<rect x="34" y="45" width="4" height="4" fill="#F4F4F4" />
<rect x="38" y="45" width="3" height="11" fill="#1C1C1C" />
<rect x="90" y="45" width="4" height="15" fill="#1C1C1C" />
<rect x="94" y="45" width="4" height="4" fill="#F4F4F4" />
<rect x="102" y="45" width="3" height="38" fill="#1C1C1C" />
<rect x="105" y="45" width="4" height="11" fill="#F4F4F4" />
<rect x="113" y="45" width="4" height="27" fill="#1C1C1C" />
<rect x="117" y="45" width="3" height="4" fill="#F4F4F4" />
<rect x="124" y="45" width="4" height="23" fill="#1C1C1C" />
<rect x="4" y="49" width="4" height="7" fill="#F4F4F4" />
<rect x="8" y="49" width="3" height="7" fill="#1C1C1C" />
<rect x="15" y="49" width="4" height="4" fill="#F4F4F4" />
<rect x="19" y="49" width="4" height="23" fill="#1C1C1C" />
<rect x="30" y="49" width="4" height="4" fill="#F4F4F4" />
<rect x="34" y="49" width="4" height="11" fill="#1C1C1C" />
<rect x="94" y="49" width="4" height="15" fill="#1C1C1C" />
<rect x="117" y="49" width="3" height="7" fill="#1C1C1C" />
<rect x="120" y="49" width="4" height="7" fill="#F4F4F4" />
<rect x="15" y="53" width="4" height="34" fill="#1C1C1C" />
<rect x="23" y="53" width="3" height="30" fill="#1C1C1C" />
<rect x="26" y="53" width="4" height="7" fill="#F4F4F4" />
<rect x="30" y="53" width="4" height="11" fill="#1C1C1C" />
<rect x="41" y="53" width="4" height="8" fill="#F4F4F4" />
<rect x="56" y="53" width="3" height="30" fill="#F4F4F4" />
<rect x="59" y="53" width="2" height="5" fill="#1C1C1C" />
<rect x="61" y="53" width="6" height="5" fill="#F4F4F4" />
<rect x="67" y="53" width="2" height="5" fill="#1C1C1C" />
<rect x="69" y="53" width="6" height="10" fill="#F4F4F4" />
<rect x="79" y="53" width="8" height="8" fill="#F4F4F4" />
<rect x="4" y="56" width="4" height="4" fill="#1C1C1C" />
<rect x="8" y="56" width="3" height="4" fill="#F4F4F4" />
<rect x="38" y="56" width="3" height="5" fill="#F4F4F4" />
<rect x="87" y="56" width="3" height="5" fill="#F4F4F4" />
<rect x="105" y="56" width="4" height="16" fill="#1C1C1C" />
<rect x="109" y="56" width="4" height="4" fill="#F4F4F4" />
<rect x="117" y="56" width="3" height="4" fill="#F4F4F4" />
<rect x="120" y="56" width="4" height="4" fill="#1C1C1C" />
<rect x="59" y="58" width="1" height="25" fill="#F4F4F4" />
<rect x="60" y="58" width="2" height="3" fill="#1C1C1C" />
<rect x="62" y="58" width="4" height="10" fill="#F4F4F4" />
<rect x="66" y="58" width="2" height="3" fill="#1C1C1C" />
<rect x="68" y="58" width="1" height="25" fill="#F4F4F4" />
<rect x="4" y="60" width="4" height="4" fill="#F4F4F4" />
<rect x="8" y="60" width="3" height="4" fill="#1C1C1C" />
<rect x="26" y="60" width="4" height="8" fill="#1C1C1C" />
<rect x="34" y="60" width="4" height="45" fill="#F4F4F4" />
<rect x="90" y="60" width="4" height="45" fill="#F4F4F4" />
<rect x="109" y="60" width="4" height="27" fill="#1C1C1C" />
<rect x="117" y="60" width="3" height="4" fill="#1C1C1C" />
<rect x="120" y="60" width="4" height="4" fill="#F4F4F4" />
<rect x="38" y="61" width="1" height="48" fill="#F4F4F4" />
<rect x="39" y="61" width="6" height="2" fill="#1C1C1C" />
<rect x="60" y="61" width="2" height="18" fill="#F4F4F4" />
<rect x="66" y="61" width="2" height="7" fill="#F4F4F4" />
<rect x="79" y="61" width="4" height="2" fill="#F4F4F4" />
<rect x="83" y="61" width="6" height="2" fill="#1C1C1C" />
<rect x="89" y="61" width="1" height="48" fill="#F4F4F4" />
<rect x="39" y="63" width="6" height="5" fill="#F4F4F4" />
<rect x="45" y="63" width="11" height="2" fill="#1C1C1C" />
<rect x="69" y="63" width="3" height="20" fill="#F4F4F4" />
<rect x="72" y="63" width="11" height="2" fill="#1C1C1C" />
<rect x="83" y="63" width="6" height="5" fill="#F4F4F4" />
<rect x="4" y="64" width="4" height="11" fill="#1C1C1C" />
<rect x="8" y="64" width="3" height="8" fill="#F4F4F4" />
<rect x="30" y="64" width="4" height="34" fill="#F4F4F4" />
<rect x="94" y="64" width="4" height="34" fill="#F4F4F4" />
<rect x="117" y="64" width="3" height="8" fill="#F4F4F4" />
<rect x="120" y="64" width="4" height="11" fill="#1C1C1C" />
<rect x="45" y="65" width="11" height="1" fill="#F4F4F4" />
<rect x="72" y="65" width="11" height="1" fill="#F4F4F4" />
<rect x="45" y="66" width="11" height="2" fill="#1C1C1C" />
<rect x="72" y="66" width="11" height="2" fill="#1C1C1C" />
<rect x="26" y="68" width="4" height="19" fill="#F4F4F4" />
<rect x="39" y="68" width="2" height="41" fill="#F4F4F4" />
<rect x="41" y="68" width="4" height="4" fill="#1C1C1C" />
<rect x="45" y="68" width="4" height="4" fill="#E0E0E0" />
<rect x="49" y="68" width="7" height="4" fill="#1C1C1C" />
<rect x="62" y="68" width="2" height="11" fill="#F4F4F4" />
<rect x="64" y="68" width="4" height="11" fill="#1C1C1C" />
<rect x="72" y="68" width="7" height="4" fill="#1C1C1C" />
<rect x="79" y="68" width="4" height="4" fill="#E0E0E0" />
<rect x="83" y="68" width="4" height="4" fill="#1C1C1C" />
<rect x="87" y="68" width="2" height="41" fill="#F4F4F4" />
<rect x="98" y="68" width="4" height="19" fill="#F4F4F4" />
<rect x="8" y="72" width="3" height="7" fill="#1C1C1C" />
<rect x="11" y="72" width="4" height="3" fill="#F4F4F4" />
<rect x="19" y="72" width="4" height="11" fill="#F4F4F4" />
<rect x="41" y="72" width="15" height="30" fill="#F4F4F4" />
<rect x="72" y="72" width="15" height="30" fill="#F4F4F4" />
<rect x="105" y="72" width="4" height="11" fill="#F4F4F4" />
<rect x="113" y="72" width="4" height="3" fill="#F4F4F4" />
<rect x="117" y="72" width="3" height="7" fill="#1C1C1C" />
<rect x="11" y="75" width="4" height="8" fill="#1C1C1C" />
<rect x="113" y="75" width="4" height="4" fill="#1C1C1C" />
<rect x="60" y="79" width="4" height="4" fill="#1C1C1C" />
<rect x="64" y="79" width="4" height="8" fill="#E0E0E0" />
<rect x="19" y="83" width="4" height="11" fill="#1C1C1C" />
<rect x="23" y="83" width="3" height="7" fill="#F4F4F4" />
<rect x="56" y="83" width="4" height="4" fill="#1C1C1C" />
<rect x="60" y="83" width="4" height="4" fill="#E0E0E0" />
<rect x="68" y="83" width="4" height="4" fill="#1C1C1C" />
<rect x="102" y="83" width="3" height="7" fill="#F4F4F4" />
<rect x="105" y="83" width="4" height="11" fill="#1C1C1C" />
<rect x="26" y="87" width="4" height="18" fill="#1C1C1C" />
<rect x="56" y="87" width="4" height="12" fill="#F4F4F4" />
<rect x="60" y="87" width="8" height="3" fill="#1C1C1C" />
<rect x="68" y="87" width="4" height="12" fill="#F4F4F4" />
<rect x="98" y="87" width="4" height="15" fill="#1C1C1C" />
<rect x="23" y="90" width="3" height="4" fill="#1C1C1C" />
<rect x="60" y="90" width="8" height="9" fill="#F4F4F4" />
<rect x="102" y="90" width="3" height="4" fill="#1C1C1C" />
<rect x="30" y="98" width="4" height="11" fill="#1C1C1C" />
<rect x="94" y="98" width="4" height="11" fill="#1C1C1C" />
<rect x="56" y="99" width="16" height="3" fill="#1C1C1C" />
<rect x="41" y="102" width="12" height="3" fill="#F4F4F4" />
<rect x="53" y="102" width="3" height="3" fill="#1C1C1C" />
<rect x="56" y="102" width="16" height="3" fill="#F4F4F4" />
<rect x="72" y="102" width="3" height="3" fill="#1C1C1C" />
<rect x="75" y="102" width="12" height="3" fill="#F4F4F4" />
<rect x="34" y="105" width="4" height="8" fill="#1C1C1C" />
<rect x="41" y="105" width="9" height="4" fill="#F4F4F4" />
<rect x="50" y="105" width="3" height="3" fill="#1C1C1C" />
<rect x="53" y="105" width="7" height="2" fill="#F4F4F4" />
<rect x="60" y="105" width="8" height="2" fill="#1C1C1C" />
<rect x="68" y="105" width="7" height="2" fill="#F4F4F4" />
<rect x="75" y="105" width="3" height="3" fill="#1C1C1C" />
<rect x="78" y="105" width="9" height="4" fill="#F4F4F4" />
<rect x="90" y="105" width="4" height="8" fill="#1C1C1C" />
<rect x="53" y="107" width="5" height="13" fill="#F4F4F4" />
<rect x="58" y="107" width="2" height="2" fill="#1C1C1C" />
<rect x="60" y="107" width="8" height="13" fill="#F4F4F4" />
<rect x="68" y="107" width="2" height="2" fill="#1C1C1C" />
<rect x="70" y="107" width="5" height="13" fill="#F4F4F4" />
<rect x="50" y="108" width="3" height="9" fill="#F4F4F4" />
<rect x="75" y="108" width="3" height="9" fill="#F4F4F4" />
<rect x="38" y="109" width="3" height="8" fill="#1C1C1C" />
<rect x="41" y="109" width="4" height="4" fill="#E0E0E0" />
<rect x="45" y="109" width="5" height="4" fill="#F4F4F4" />
<rect x="58" y="109" width="2" height="11" fill="#F4F4F4" />
<rect x="68" y="109" width="2" height="11" fill="#F4F4F4" />
<rect x="78" y="109" width="5" height="4" fill="#F4F4F4" />
<rect x="83" y="109" width="4" height="4" fill="#E0E0E0" />
<rect x="87" y="109" width="3" height="8" fill="#1C1C1C" />
<rect x="41" y="113" width="4" height="7" fill="#1C1C1C" />
<rect x="45" y="113" width="4" height="4" fill="#E0E0E0" />
<rect x="49" y="113" width="1" height="4" fill="#F4F4F4" />
<rect x="78" y="113" width="1" height="4" fill="#F4F4F4" />
<rect x="79" y="113" width="4" height="4" fill="#E0E0E0" />
<rect x="83" y="113" width="4" height="7" fill="#1C1C1C" />
<rect x="45" y="117" width="4" height="7" fill="#1C1C1C" />
<rect x="49" y="117" width="4" height="3" fill="#E0E0E0" />
<rect x="75" y="117" width="4" height="3" fill="#E0E0E0" />
<rect x="79" y="117" width="4" height="7" fill="#1C1C1C" />
<rect x="49" y="120" width="4" height="8" fill="#1C1C1C" />
<rect x="53" y="120" width="22" height="4" fill="#E0E0E0" />
<rect x="75" y="120" width="4" height="8" fill="#1C1C1C" />
<rect x="53" y="124" width="22" height="4" fill="#1C1C1C" />
</svg>