<?xml version="1.0" encoding="UTF-8" ?>
<svg version="1.1" width="64" height="64" xmlns="http://www.w3.org/2000/svg" shape-rendering="crispEdges">
<rect x="37" y="7" width="1" height="11" fill="#FBF236" />
<rect x="40" y="7" width="1" height="2" fill="#FBF236" />
<rect x="43" y="7" width="1" height="2" fill="#FBF236" />
<rect x="46" y="7" width="1" height="11" fill="#FBF236" />
<rect x="50" y="7" width="1" height="11" fill="#FBF236" />
<rect x="39" y="9" width="1" height="2" fill="#FBF236" />
<rect x="43" y="10" width="1" height="8" fill="#FBF236" />
<rect x="38" y="11" width="1" height="1" fill="#FBF236" />
<rect x="39" y="12" width="1" height="3" fill="#FBF236" />
<rect x="40" y="15" width="1" height="3" fill="#FBF236" />
<rect x="47" y="17" width="2" height="1" fill="#FBF236" />
<rect x="51" y="17" width="2" height="1" fill="#FBF236" />
<rect x="31" y="19" width="2" height="10" fill="#A6A6A6" />
<rect x="42" y="21" width="1" height="1" fill="#A6A6A6" />
<rect x="22" y="22" width="1" height="1" fill="#A6A6A6" />
<rect x="41" y="22" width="1" height="1" fill="#A6A6A6" />
<rect x="23" y="23" width="1" height="1" fill="#A6A6A6" />
<rect x="40" y="23" width="1" height="1" fill="#A6A6A6" />
<rect x="24" y="24" width="1" height="1" fill="#A6A6A6" />
<rect x="39" y="24" width="1" height="1" fill="#A6A6A6" />
<rect x="25" y="25" width="1" height="1" fill="#A6A6A6" />
<rect x="38" y="25" width="1" height="1" fill="#A6A6A6" />
<rect x="26" y="26" width="1" height="1" fill="#A6A6A6" />
<rect x="37" y="26" width="1" height="1" fill="#A6A6A6" />
<rect x="27" y="27" width="1" height="1" fill="#A6A6A6" />
<rect x="36" y="27" width="1" height="1" fill="#A6A6A6" />
<rect x="28" y="28" width="1" height="1" fill="#A6A6A6" />
<rect x="35" y="28" width="1" height="1" fill="#A6A6A6" />
<rect x="29" y="29" width="1" height="1" fill="#A6A6A6" />
<rect x="19" y="31" width="10" height="2" fill="#A6A6A6" />
<rect x="31" y="31" width="2" height="2" fill="#A6A6A6" />
<rect x="35" y="31" width="10" height="2" fill="#A6A6A6" />
<rect x="28" y="35" width="1" height="1" fill="#A6A6A6" />
<rect x="31" y="35" width="2" height="10" fill="#A6A6A6" />
<rect x="35" y="35" width="1" height="1" fill="#A6A6A6" />
<rect x="27" y="36" width="1" height="1" fill="#A6A6A6" />
<rect x="36" y="36" width="1" height="1" fill="#A6A6A6" />
<rect x="26" y="37" width="1" height="1" fill="#A6A6A6" />
<rect x="37" y="37" width="1" height="1" fill="#A6A6A6" />
<rect x="25" y="38" width="1" height="1" fill="#A6A6A6" />
<rect x="38" y="38" width="1" height="1" fill="#A6A6A6" />
<rect x="24" y="39" width="1" height="1" fill="#A6A6A6" />
<rect x="39" y="39" width="1" height="1" fill="#A6A6A6" />
<rect x="23" y="40" width="1" height="1" fill="#A6A6A6" />
<rect x="40" y="40" width="1" height="1" fill="#A6A6A6" />
<rect x="22" y="41" width="1" height="1" fill="#A6A6A6" />
<rect x="41" y="41" width="1" height="1" fill="#A6A6A6" />
<rect x="21" y="42" width="1" height="1" fill="#A6A6A6" />
</svg>