<?xml version="1.0" encoding="UTF-8" ?>
<svg version="1.1" width="32" height="32" xmlns="http://www.w3.org/2000/svg" shape-rendering="crispEdges">
<rect x="8" y="3" width="1" height="1" fill="#F4F4F4" />
<rect x="7" y="4" width="1" height="23" fill="#F4F4F4" />
<rect x="8" y="4" width="1" height="22" fill="#E0E0E0" />
<rect x="9" y="4" width="1" height="1" fill="#F4F4F4" />
<rect x="9" y="5" width="1" height="1" fill="#E0E0E0" />
<rect x="10" y="5" width="1" height="1" fill="#F4F4F4" />
<rect x="9" y="6" width="1" height="18" fill="#1C1C1C" />
<rect x="10" y="6" width="1" height="1" fill="#E0E0E0" />
<rect x="11" y="6" width="1" height="1" fill="#F4F4F4" />
<rect x="10" y="7" width="1" height="16" fill="#1C1C1C" />
<rect x="11" y="7" width="1" height="1" fill="#E0E0E0" />
<rect x="12" y="7" width="1" height="1" fill="#F4F4F4" />
<rect x="11" y="8" width="1" height="14" fill="#1C1C1C" />
<rect x="12" y="8" width="1" height="1" fill="#E0E0E0" />
<rect x="13" y="8" width="1" height="1" fill="#F4F4F4" />
<rect x="12" y="9" width="1" height="12" fill="#1C1C1C" />
<rect x="13" y="9" width="1" height="1" fill="#E0E0E0" />
<rect x="14" y="9" width="1" height="1" fill="#F4F4F4" />
<rect x="13" y="10" width="1" height="10" fill="#1C1C1C" />
<rect x="14" y="10" width="1" height="1" fill="#E0E0E0" />
<rect x="15" y="10" width="1" height="1" fill="#F4F4F4" />
<rect x="14" y="11" width="1" height="8" fill="#1C1C1C" />
<rect x="15" y="11" width="1" height="1" fill="#E0E0E0" />
<rect x="16" y="11" width="1" height="1" fill="#F4F4F4" />
<rect x="15" y="12" width="1" height="7" fill="#1C1C1C" />
<rect x="16" y="12" width="1" height="1" fill="#E0E0E0" />
<rect x="17" y="12" width="1" height="1" fill="#F4F4F4" />
<rect x="16" y="13" width="1" height="6" fill="#1C1C1C" />
<rect x="17" y="13" width="1" height="1" fill="#E0E0E0" />
<rect x="18" y="13" width="1" height="1" fill="#F4F4F4" />
<rect x="17" y="14" width="1" height="5" fill="#1C1C1C" />
<rect x="18" y="14" width="1" height="1" fill="#E0E0E0" />
<rect x="19" y="14" width="1" height="1" fill="#F4F4F4" />
<rect x="18" y="15" width="1" height="4" fill="#1C1C1C" />
<rect x="19" y="15" width="1" height="1" fill="#E0E0E0" />
<rect x="20" y="15" width="1" height="1" fill="#F4F4F4" />
<rect x="19" y="16" width="1" height="3" fill="#1C1C1C" />
<rect x="20" y="16" width="1" height="1" fill="#E0E0E0" />
<rect x="21" y="16" width="1" height="1" fill="#F4F4F4" />
<rect x="20" y="17" width="1" height="2" fill="#1C1C1C" />
<rect x="21" y="17" width="1" height="1" fill="#E0E0E0" />
<rect x="22" y="17" width="1" height="1" fill="#F4F4F4" />
<rect x="21" y="18" width="1" height="1" fill="#1C1C1C" />
<rect x="22" y="18" width="1" height="2" fill="#E0E0E0" />
<rect x="23" y="18" width="1" height="1" fill="#F4F4F4" />
<rect x="14" y="19" width="8" height="1" fill="#E0E0E0" />
<rect x="23" y="19" width="1" height="1" fill="#E0E0E0" />
<rect x="24" y="19" width="1" height="2" fill="#F4F4F4" />
<rect x="13" y="20" width="1" height="1" fill="#E0E0E0" />
<rect x="14" y="20" width="10" height="1" fill="#F4F4F4" />
<rect x="25" y="20" width="1" height="1" fill="#F4F4F4" />
<rect x="12" y="21" width="1" height="1" fill="#E0E0E0" />
<rect x="13" y="21" width="1" height="1" fill="#F4F4F4" />
<rect x="11" y="22" width="1" height="1" fill="#E0E0E0" />
<rect x="12" y="22" width="1" height="1" fill="#F4F4F4" />
<rect x="10" y="23" width="1" height="1" fill="#E0E0E0" />
<rect x="11" y="23" width="1" height="1" fill="#F4F4F4" />
<rect x="9" y="24" width="1" height="1" fill="#E0E0E0" />
<rect x="10" y="24" width="1" height="1" fill="#F4F4F4" />
<rect x="9" y="25" width="1" height="1" fill="#F4F4F4" />
<rect x="8" y="26" width="1" height="1" fill="#F4F4F4" />
</svg>